<svg id="Rent-House--Streamline-Atlas" xmlns="http://www.w3.org/2000/svg" viewBox="-1.125 -1.125 36 36" height="36" width="36">
  <desc>
    Rent House Streamline Icon: https://streamlinehq.com
  </desc>
  <defs></defs>
  <path d="M2.053125 18.9H4.078125a2.025 2.025 0 0 1 2.025 2.025 2.025 2.025 0 0 1 -2.025 2.0109375H2.053125v-4.0359375Z" fill="none" stroke="#3470ff" stroke-miterlimit="10" stroke-width="2.25"></path>
  <path d="M2.053125 28.335937499999996v-5.3999999999999995h1.40625a2.6859375 2.6859375 0 0 1 2.6859375 2.6999999999999997v2.6999999999999997" fill="none" stroke="#3470ff" stroke-miterlimit="10" stroke-width="2.25"></path>
  <path d="m14.175 26.985937500000002 -4.0359375 0 0 -8.0859375 4.0359375 0" fill="none" stroke="#3470ff" stroke-miterlimit="10" stroke-width="2.25"></path>
  <path d="m12.8390625 22.935937499999998 -2.6999999999999997 0" fill="none" stroke="#3470ff" stroke-miterlimit="10" stroke-width="2.25"></path>
  <path d="m16.875 28.335937499999996 0 -9.4359375 1.3499999999999999 0 2.6999999999999997 8.0859375 1.3359375 0 0 -9.4359375" fill="none" stroke="#3470ff" stroke-miterlimit="10" stroke-width="2.25"></path>
  <path d="m24.9609375 18.9 8.0859375 0" fill="none" stroke="#3470ff" stroke-miterlimit="10" stroke-width="2.25"></path>
  <path d="m29.010937499999997 28.335937499999996 0 -9.4359375" fill="none" stroke="#3470ff" stroke-miterlimit="10" stroke-width="2.25"></path>
  <path d="m33.046875 31.021874999999998 -32.34375 0" fill="none" stroke="#3470ff" stroke-miterlimit="10" stroke-width="2.25"></path>
  <path d="M31.696875 14.850000000000001 16.875 2.728125 2.053125 14.850000000000001" fill="none" stroke="#3470ff" stroke-miterlimit="10" stroke-width="2.25"></path>
</svg>