<svg aria-hidden="true" style="position: absolute; width: 0; height: 0; overflow: hidden;" version="1.1"
     xmlns="http://www.w3.org/2000/svg" xmlns:xlink="http://www.w3.org/1999/xlink">
    <defs>
        <symbol id="icon-logo" viewBox="0 0 32 32">
                <path d="M2.053125 18.9H4.078125a2.025 2.025 0 0 1 2.025 2.025 2.025 2.025 0 0 1 -2.025 2.0109375H2.053125v-4.0359375Z" fill="none" stroke="#3470ff" stroke-miterlimit="10" stroke-width="2.25"></path>
                <path d="M2.053125 28.335937499999996v-5.3999999999999995h1.40625a2.6859375 2.6859375 0 0 1 2.6859375 2.6999999999999997v2.6999999999999997" fill="none" stroke="#3470ff" stroke-miterlimit="10" stroke-width="2.25"></path>
                <path d="m14.175 26.985937500000002 -4.0359375 0 0 -8.0859375 4.0359375 0" fill="none" stroke="#3470ff" stroke-miterlimit="10" stroke-width="2.25"></path>
                <path d="m12.8390625 22.935937499999998 -2.6999999999999997 0" fill="none" stroke="#3470ff" stroke-miterlimit="10" stroke-width="2.25"></path>
                <path d="m16.875 28.335937499999996 0 -9.4359375 1.3499999999999999 0 2.6999999999999997 8.0859375 1.3359375 0 0 -9.4359375" fill="none" stroke="#3470ff" stroke-miterlimit="10" stroke-width="2.25"></path>
                <path d="m24.9609375 18.9 8.0859375 0" fill="none" stroke="#3470ff" stroke-miterlimit="10" stroke-width="2.25"></path>
                <path d="m29.010937499999997 28.335937499999996 0 -9.4359375" fill="none" stroke="#3470ff" stroke-miterlimit="10" stroke-width="2.25"></path>
                <path d="m33.046875 31.021874999999998 -32.34375 0" fill="none" stroke="#3470ff" stroke-miterlimit="10" stroke-width="2.25"></path>
                <path d="M31.696875 14.850000000000001 16.875 2.728125 2.053125 14.850000000000001" fill="none" stroke="#3470ff" stroke-miterlimit="10" stroke-width="2.25"></path>
        </symbol>
        <symbol id="icon-x" viewBox="0 0 32 32">
            <path stroke-linejoin="round" stroke-linecap="round" stroke-miterlimit="4" stroke-width="2.4"
                  d="M24 8l-16 16"></path>
            <path stroke-linejoin="round" stroke-linecap="round" stroke-miterlimit="4" stroke-width="2.4"
                  d="M8 8l16 16"></path>
        </symbol>
        <symbol id="icon-favorite" viewBox="0 0 32 32">
            <path stroke-linejoin="round" stroke-linecap="round" stroke-miterlimit="4" stroke-width="2.6667"
                  d="M27.787 6.147c-0.681-0.681-1.49-1.222-2.38-1.591s-1.844-0.559-2.807-0.559c-0.963 0-1.917 0.19-2.807 0.559s-1.698 0.909-2.38 1.591l-1.413 1.413-1.413-1.413c-1.376-1.376-3.241-2.148-5.187-2.148s-3.811 0.773-5.187 2.148c-1.376 1.376-2.148 3.241-2.148 5.187s0.773 3.811 2.148 5.187l11.787 11.787 11.787-11.787c0.681-0.681 1.222-1.49 1.591-2.38s0.559-1.844 0.559-2.807c0-0.963-0.19-1.917-0.559-2.807s-0.909-1.699-1.591-2.38z"></path>
        </symbol>
    </defs>
</svg>
